<svg xmlns="http://www.w3.org/2000/svg" xmlns:xlink="http://www.w3.org/1999/xlink" id="Facebook" width="550.8" height="550.8" x="0" y="0" enable-background="new 30.6 120.6 550.8 550.8" version="1.1" viewBox="30.6 120.6 550.8 550.8" xml:space="preserve"><path fill="#FFF" d="M520.201,120.6H91.8c-33.66,0-61.2,27.54-61.2,61.2v428.401c0,33.689,27.54,61.199,61.2,61.199H306V457.201	h-61.2v-75.736H306v-62.729c0-66.218,37.088-112.73,115.24-112.73l55.172,0.062v79.713h-36.629	c-30.416,0-41.982,22.828-41.982,44.003v51.715h78.58L459,457.201H397.8V671.4h122.4c33.66,0,61.199-27.51,61.199-61.199V181.8	C581.4,148.14,553.861,120.6,520.201,120.6z"/></svg>
