<svg xmlns="http://www.w3.org/2000/svg" xmlns:xlink="http://www.w3.org/1999/xlink" id="LinkedIn" width="550.802" height="550.8" x="0" y="0" enable-background="new 30.6 120.6 550.802 550.8" version="1.1" viewBox="30.6 120.6 550.802 550.8" xml:space="preserve"><path fill="#222" d="M153,181.8c0,33.66-21.42,61.2-61.2,61.2c-36.72,0-61.2-27.54-61.2-58.14c0-33.66,24.48-64.26,61.2-64.26	C128.52,120.6,153,148.14,153,181.8z M30.6,671.4H153V273.6H30.6V671.4z M446.759,279.72c-64.26,0-100.979,36.72-116.277,61.199	h-3.062L321.3,288.9H211.14c0,33.66,3.06,73.439,3.06,119.34V671.4h122.399V454.14c0-12.238,0-21.42,3.062-30.6	c9.18-21.42,24.479-48.961,58.139-48.961c42.84,0,61.201,36.721,61.201,85.68V671.4h122.4V444.96	C581.4,331.74,523.259,279.72,446.759,279.72z"/></svg>
